<svg width="1698" height="983" xmlns="http://www.w3.org/2000/svg" xmlns:xlink="http://www.w3.org/1999/xlink" xml:space="preserve" overflow="hidden"><g transform="translate(-1352 -957)"><path d="M1352.08 975.391 3047.92 975.391 3047.92 1080.81 1352.08 1080.81Z" fill="#FFFFFF" fill-rule="evenodd"/><path d="M1352.08 1080.81 1521.67 1080.81 1521.67 1190.81 1352.08 1190.81Z" fill="#D9EAD3" fill-rule="evenodd"/><path d="M1521.67 1080.81 1691.25 1080.81 1691.25 1190.81 1521.67 1190.81Z" fill="#FFFFFF" fill-rule="evenodd"/><path d="M1691.25 1080.81 1860.83 1080.81 1860.83 1190.81 1691.25 1190.81Z" fill="#FFFFFF" fill-rule="evenodd"/><path d="M1860.83 1080.81 2030.42 1080.81 2030.42 1190.81 1860.83 1190.81Z" fill="#D9EAD3" fill-rule="evenodd"/><path d="M2030.42 1080.81 2200 1080.81 2200 1190.81 2030.42 1190.81Z" fill="#FFFFFF" fill-rule="evenodd"/><path d="M2200 1080.81 2369.58 1080.81 2369.58 1190.81 2200 1190.81Z" fill="#FFFFFF" fill-rule="evenodd"/><path d="M2369.58 1080.81 2539.17 1080.81 2539.17 1190.81 2369.58 1190.81Z" fill="#D9EAD3" fill-rule="evenodd"/><path d="M2539.17 1080.81 2708.75 1080.81 2708.75 1190.81 2539.17 1190.81Z" fill="#FFFFFF" fill-rule="evenodd"/><path d="M2708.75 1080.81 2878.33 1080.81 2878.33 1190.81 2708.75 1190.81Z" fill="#FFFFFF" fill-rule="evenodd"/><path d="M2878.33 1080.81 3047.92 1080.81 3047.92 1190.81 2878.33 1190.81Z" fill="#FFFFFF" fill-rule="evenodd"/><path d="M1352.08 1190.81 1521.67 1190.81 1521.67 1290.49 1352.08 1290.49Z" fill="#D9EAD3" fill-rule="evenodd"/><path d="M1521.67 1190.81 1691.25 1190.81 1691.25 1290.49 1521.67 1290.49Z" fill="#FFFFFF" fill-rule="evenodd"/><path d="M1691.25 1190.81 1860.83 1190.81 1860.83 1290.49 1691.25 1290.49Z" fill="#FFFFFF" fill-rule="evenodd"/><path d="M1860.83 1190.81 2030.42 1190.81 2030.42 1290.49 1860.83 1290.49Z" fill="#D9EAD3" fill-rule="evenodd"/><path d="M2030.42 1190.81 2200 1190.81 2200 1290.49 2030.42 1290.49Z" fill="#FFFFFF" fill-rule="evenodd"/><path d="M2200 1190.81 2369.58 1190.81 2369.58 1290.49 2200 1290.49Z" fill="#FFFFFF" fill-rule="evenodd"/><path d="M2369.58 1190.81 2539.17 1190.81 2539.17 1290.49 2369.58 1290.49Z" fill="#D9EAD3" fill-rule="evenodd"/><path d="M2539.17 1190.81 2708.75 1190.81 2708.75 1290.49 2539.17 1290.49Z" fill="#FFFFFF" fill-rule="evenodd"/><path d="M2708.75 1190.81 2878.33 1190.81 2878.33 1290.49 2708.75 1290.49Z" fill="#FFFFFF" fill-rule="evenodd"/><path d="M2878.33 1190.81 3047.92 1190.81 3047.92 1290.49 2878.33 1290.49Z" fill="#FFFFFF" fill-rule="evenodd"/><path d="M1352.08 1290.49 1521.67 1290.49 1521.67 1400.49 1352.08 1400.49Z" fill="#D9EAD3" fill-rule="evenodd"/><path d="M1521.67 1290.49 1691.25 1290.49 1691.25 1400.49 1521.67 1400.49Z" fill="#92D050" fill-rule="evenodd"/><path d="M1691.25 1290.49 1860.83 1290.49 1860.83 1400.49 1691.25 1400.49Z" fill="#FFFFFF" fill-rule="evenodd"/><path d="M1860.83 1290.49 2030.42 1290.49 2030.42 1400.49 1860.83 1400.49Z" fill="#D9EAD3" fill-rule="evenodd"/><path d="M2030.42 1290.49 2200 1290.49 2200 1400.49 2030.42 1400.49Z" fill="#D9EAD3" fill-rule="evenodd"/><path d="M2200 1290.49 2369.58 1290.49 2369.58 1400.49 2200 1400.49Z" fill="#92D050" fill-rule="evenodd"/><path d="M2369.58 1290.49 2539.17 1290.49 2539.17 1400.49 2369.58 1400.49Z" fill="#FFFFFF" fill-rule="evenodd"/><path d="M2539.17 1290.49 2708.75 1290.49 2708.75 1400.49 2539.17 1400.49Z" fill="#D9EAD3" fill-rule="evenodd"/><path d="M2708.75 1290.49 2878.33 1290.49 2878.33 1400.49 2708.75 1400.49Z" fill="#92D050" fill-rule="evenodd"/><path d="M2878.33 1290.49 3047.92 1290.49 3047.92 1400.49 2878.33 1400.49Z" fill="#FFFFFF" fill-rule="evenodd"/><path d="M1352.08 1400.49 1521.67 1400.49 1521.67 1500.18 1352.08 1500.18Z" fill="#D9EAD3" fill-rule="evenodd"/><path d="M1521.67 1400.49 1691.25 1400.49 1691.25 1500.18 1521.67 1500.18Z" fill="#92D050" fill-rule="evenodd"/><path d="M1691.25 1400.49 1860.83 1400.49 1860.83 1500.18 1691.25 1500.18Z" fill="#FFFFFF" fill-rule="evenodd"/><path d="M1860.83 1400.49 2030.42 1400.49 2030.42 1500.18 1860.83 1500.18Z" fill="#D9EAD3" fill-rule="evenodd"/><path d="M2030.42 1400.49 2200 1400.49 2200 1500.18 2030.42 1500.18Z" fill="#D9EAD3" fill-rule="evenodd"/><path d="M2200 1400.49 2369.58 1400.49 2369.58 1500.18 2200 1500.18Z" fill="#92D050" fill-rule="evenodd"/><path d="M2369.58 1400.49 2539.17 1400.49 2539.17 1500.18 2369.58 1500.18Z" fill="#FFFFFF" fill-rule="evenodd"/><path d="M2539.17 1400.49 2708.75 1400.49 2708.75 1500.18 2539.17 1500.18Z" fill="#D9EAD3" fill-rule="evenodd"/><path d="M2708.75 1400.49 2878.33 1400.49 2878.33 1500.18 2708.75 1500.18Z" fill="#92D050" fill-rule="evenodd"/><path d="M2878.33 1400.49 3047.92 1400.49 3047.92 1500.18 2878.33 1500.18Z" fill="#FFFFFF" fill-rule="evenodd"/><path d="M1352.08 1500.18 1521.67 1500.18 1521.67 1603.31 1352.08 1603.31Z" fill="#FFFFFF" fill-rule="evenodd"/><path d="M1521.67 1500.18 1691.25 1500.18 1691.25 1603.31 1521.67 1603.31Z" fill="#FFFFFF" fill-rule="evenodd"/><path d="M1691.25 1500.18 1860.83 1500.18 1860.83 1603.31 1691.25 1603.31Z" fill="#FFFFFF" fill-rule="evenodd"/><path d="M1860.83 1500.18 2030.42 1500.18 2030.42 1603.31 1860.83 1603.31Z" fill="#92D050" fill-rule="evenodd"/><path d="M2030.42 1500.18 2200 1500.18 2200 1603.31 2030.42 1603.31Z" fill="#D9EAD3" fill-rule="evenodd"/><path d="M2200 1500.18 2369.58 1500.18 2369.58 1603.31 2200 1603.31Z" fill="#FFFFFF" fill-rule="evenodd"/><path d="M2369.58 1500.18 2539.17 1500.18 2539.17 1603.31 2369.58 1603.31Z" fill="#FFFFFF" fill-rule="evenodd"/><path d="M2539.17 1500.18 2708.75 1500.18 2708.75 1603.31 2539.17 1603.31Z" fill="#FFFFFF" fill-rule="evenodd"/><path d="M2708.75 1500.18 2878.33 1500.18 2878.33 1603.31 2708.75 1603.31Z" fill="#FFFFFF" fill-rule="evenodd"/><path d="M2878.33 1500.18 3047.92 1500.18 3047.92 1603.31 2878.33 1603.31Z" fill="#FFFFFF" fill-rule="evenodd"/><path d="M1352.08 1603.31 1521.67 1603.31 1521.67 1702.99 1352.08 1702.99Z" fill="#FFFFFF" fill-rule="evenodd"/><path d="M1521.67 1603.31 1691.25 1603.31 1691.25 1702.99 1521.67 1702.99Z" fill="#FFFFFF" fill-rule="evenodd"/><path d="M1691.25 1603.31 1860.83 1603.31 1860.83 1702.99 1691.25 1702.99Z" fill="#FFFFFF" fill-rule="evenodd"/><path d="M1860.83 1603.31 2030.42 1603.31 2030.42 1702.99 1860.83 1702.99Z" fill="#92D050" fill-rule="evenodd"/><path d="M2030.42 1603.31 2200 1603.31 2200 1702.99 2030.42 1702.99Z" fill="#D9EAD3" fill-rule="evenodd"/><path d="M2200 1603.31 2369.58 1603.31 2369.58 1702.99 2200 1702.99Z" fill="#FFFFFF" fill-rule="evenodd"/><path d="M2369.58 1603.31 2539.17 1603.31 2539.17 1702.99 2369.58 1702.99Z" fill="#FFFFFF" fill-rule="evenodd"/><path d="M2539.17 1603.31 2708.75 1603.31 2708.75 1702.99 2539.17 1702.99Z" fill="#FFFFFF" fill-rule="evenodd"/><path d="M2708.75 1603.31 2878.33 1603.31 2878.33 1702.99 2708.75 1702.99Z" fill="#FFFFFF" fill-rule="evenodd"/><path d="M2878.33 1603.31 3047.92 1603.31 3047.92 1702.99 2878.33 1702.99Z" fill="#FFFFFF" fill-rule="evenodd"/><path d="M1352.08 1702.99 1521.67 1702.99 1521.67 1812.99 1352.08 1812.99Z" fill="#FFFFFF" fill-rule="evenodd"/><path d="M1521.67 1702.99 1691.25 1702.99 1691.25 1812.99 1521.67 1812.99Z" fill="#FFFFFF" fill-rule="evenodd"/><path d="M1691.25 1702.99 1860.83 1702.99 1860.83 1812.99 1691.25 1812.99Z" fill="#FFFFFF" fill-rule="evenodd"/><path d="M1860.83 1702.99 2030.42 1702.99 2030.42 1812.99 1860.83 1812.99Z" fill="#D9EAD3" fill-rule="evenodd"/><path d="M2030.42 1702.99 2200 1702.99 2200 1812.99 2030.42 1812.99Z" fill="#FFFFFF" fill-rule="evenodd"/><path d="M2200 1702.99 2369.58 1702.99 2369.58 1812.99 2200 1812.99Z" fill="#FFFFFF" fill-rule="evenodd"/><path d="M2369.58 1702.99 2539.17 1702.99 2539.17 1812.99 2369.58 1812.99Z" fill="#FFFFFF" fill-rule="evenodd"/><path d="M2539.17 1702.99 2708.75 1702.99 2708.75 1812.99 2539.17 1812.99Z" fill="#D9EAD3" fill-rule="evenodd"/><path d="M2708.75 1702.99 2878.33 1702.99 2878.33 1812.99 2708.75 1812.99Z" fill="#FFFFFF" fill-rule="evenodd"/><path d="M2878.33 1702.99 3047.92 1702.99 3047.92 1812.99 2878.33 1812.99Z" fill="#FFFFFF" fill-rule="evenodd"/><path d="M1352.08 1812.99 1521.67 1812.99 1521.67 1912.68 1352.08 1912.68Z" fill="#FFFFFF" fill-rule="evenodd"/><path d="M1521.67 1812.99 1691.25 1812.99 1691.25 1912.68 1521.67 1912.68Z" fill="#FFFFFF" fill-rule="evenodd"/><path d="M1691.25 1812.99 1860.83 1812.99 1860.83 1912.68 1691.25 1912.68Z" fill="#FFFFFF" fill-rule="evenodd"/><path d="M1860.83 1812.99 2030.42 1812.99 2030.42 1912.68 1860.83 1912.68Z" fill="#D9EAD3" fill-rule="evenodd"/><path d="M2030.42 1812.99 2200 1812.99 2200 1912.68 2030.42 1912.68Z" fill="#FFFFFF" fill-rule="evenodd"/><path d="M2200 1812.99 2369.58 1812.99 2369.58 1912.68 2200 1912.68Z" fill="#FFFFFF" fill-rule="evenodd"/><path d="M2369.58 1812.99 2539.17 1812.99 2539.17 1912.68 2369.58 1912.68Z" fill="#FFFFFF" fill-rule="evenodd"/><path d="M2539.17 1812.99 2708.75 1812.99 2708.75 1912.68 2539.17 1912.68Z" fill="#D9EAD3" fill-rule="evenodd"/><path d="M2708.75 1812.99 2878.33 1812.99 2878.33 1912.68 2708.75 1912.68Z" fill="#FFFFFF" fill-rule="evenodd"/><path d="M2878.33 1812.99 3047.92 1812.99 3047.92 1912.68 2878.33 1912.68Z" fill="#FFFFFF" fill-rule="evenodd"/><path d="M1352.08 1080.81 3047.92 1080.81" stroke="#000000" stroke-width="2.29167" stroke-linejoin="round" stroke-miterlimit="10" fill="none" fill-rule="evenodd"/><text font-family="Arial,Arial_MSFontService,sans-serif" font-weight="700" font-size="83" transform="matrix(1 0 0 1 2007.5 1063)">Arbëƞisht</text><g><text font-family="Arial,Arial_MSFontService,sans-serif" font-weight="400" font-size="87" transform="matrix(1 0 0 1 2929.32 1166)">G</text></g><text font-family="Arial,Arial_MSFontService,sans-serif" font-weight="400" font-size="87" transform="matrix(1 0 0 1 2766.9 1166)">F</text><text font-family="Arial,Arial_MSFontService,sans-serif" font-weight="400" font-size="87" transform="matrix(1 0 0 1 2595.03 1166)">Ë</text><text font-family="Arial,Arial_MSFontService,sans-serif" font-weight="400" font-size="87" transform="matrix(1 0 0 1 2425.44 1166)">E</text><g><text font-family="Arial,Arial_MSFontService,sans-serif" font-weight="400" font-size="87" transform="matrix(1 0 0 1 2228.93 1166)">Dh</text></g><text font-family="Arial,Arial_MSFontService,sans-serif" font-weight="400" font-size="87" transform="matrix(1 0 0 1 2083.7 1166)">D</text><g><text font-family="Arial,Arial_MSFontService,sans-serif" font-weight="400" font-size="87" transform="matrix(1 0 0 1 1889.77 1166)">Ch</text></g><text font-family="Arial,Arial_MSFontService,sans-serif" font-weight="400" font-size="87" transform="matrix(1 0 0 1 1744.53 1166)">C</text><text font-family="Arial,Arial_MSFontService,sans-serif" font-weight="400" font-size="87" transform="matrix(1 0 0 1 1577.53 1166)">B</text><text font-family="Arial,Arial_MSFontService,sans-serif" font-weight="400" font-size="87" transform="matrix(1 0 0 1 1407.94 1166)">A</text><text font-family="Arial,Arial_MSFontService,sans-serif" font-weight="400" font-size="60" transform="matrix(1 0 0 1 2929.9 1262)">/g/</text><text font-family="Arial,Arial_MSFontService,sans-serif" font-weight="400" font-size="60" transform="matrix(1 0 0 1 2768.62 1262)">/f/</text><text font-family="Arial,Arial_MSFontService,sans-serif" font-weight="400" font-size="60" transform="matrix(1 0 0 1 2590.73 1262)">/ə/</text><g><text font-family="Arial,Arial_MSFontService,sans-serif" font-weight="400" font-size="60" transform="matrix(1 0 0 1 2393.65 1262)">/</text></g><text font-family="Arial,Arial_MSFontService,sans-serif" font-weight="400" font-size="60" transform="matrix(1 0 0 1 2410.26 1262)">ɛ</text><text font-family="Arial,Arial_MSFontService,sans-serif" font-weight="400" font-size="60" transform="matrix(1 0 0 1 2437.76 1262)">, </text><text font-family="Arial,Arial_MSFontService,sans-serif" font-weight="400" font-size="60" transform="matrix(1 0 0 1 2470.99 1262)">ɛ̃</text><g><text font-family="Arial,Arial_MSFontService,sans-serif" font-weight="400" font-size="60" transform="matrix(1 0 0 1 2498.49 1262)">/</text></g><text font-family="Arial,Arial_MSFontService,sans-serif" font-weight="400" font-size="60" transform="matrix(1 0 0 1 2251.56 1262)">/ð/</text><text font-family="Arial,Arial_MSFontService,sans-serif" font-weight="400" font-size="60" transform="matrix(1 0 0 1 2081.98 1262)">/d/</text><text font-family="Arial,Arial_MSFontService,sans-serif" font-weight="400" font-size="60" transform="matrix(1 0 0 1 1914.11 1262)">/tʃ/</text><text font-family="Arial,Arial_MSFontService,sans-serif" font-weight="400" font-size="60" transform="matrix(1 0 0 1 1736.22 1262)">/ts/</text><text font-family="Arial,Arial_MSFontService,sans-serif" font-weight="400" font-size="60" transform="matrix(1 0 0 1 1573.23 1262)">/b/</text><g><text font-family="Arial,Arial_MSFontService,sans-serif" font-weight="400" font-size="60" transform="matrix(1 0 0 1 1370.42 1262)">/</text></g><g><text font-family="Arial,Arial_MSFontService,sans-serif" font-weight="400" font-size="60" transform="matrix(1 0 0 1 1387.03 1262)">ä</text></g><text font-family="Arial,Arial_MSFontService,sans-serif" font-weight="400" font-size="60" transform="matrix(1 0 0 1 1420.26 1262)">, </text><g><text font-family="Arial,Arial_MSFontService,sans-serif" font-weight="400" font-size="60" transform="matrix(1 0 0 1 1453.49 1262)">ɑ̃</text></g><g><text font-family="Arial,Arial_MSFontService,sans-serif" font-weight="400" font-size="60" transform="matrix(1 0 0 1 1486.72 1262)">/</text></g><text font-family="Arial,Arial_MSFontService,sans-serif" font-weight="400" font-size="83" transform="matrix(1 0 0 1 2940.21 1375)">L</text><g><text font-family="Arial,Arial_MSFontService,sans-serif" font-weight="400" font-size="87" transform="matrix(1 0 0 1 2754.87 1375)">Kȷ</text></g><g><text font-family="Arial,Arial_MSFontService,sans-serif" font-weight="400" font-size="87" transform="matrix(1 0 0 1 2585.29 1375)">Kj</text></g><text font-family="Arial,Arial_MSFontService,sans-serif" font-weight="400" font-size="87" transform="matrix(1 0 0 1 2425.44 1375)">K</text><text font-family="Arial,Arial_MSFontService,sans-serif" font-weight="400" font-size="83" transform="matrix(1 0 0 1 2264.17 1375)">J</text><text font-family="Arial,Arial_MSFontService,sans-serif" font-weight="400" font-size="87" transform="matrix(1 0 0 1 2093.44 1375)">J̇</text><text font-family="Arial,Arial_MSFontService,sans-serif" font-weight="400" font-size="87" transform="matrix(1 0 0 1 1933.59 1375)">I</text><text font-family="Arial,Arial_MSFontService,sans-serif" font-weight="400" font-size="87" transform="matrix(1 0 0 1 1744.53 1375)">H</text><g><text font-family="Arial,Arial_MSFontService,sans-serif" font-weight="400" font-size="87" transform="matrix(1 0 0 1 1562.92 1375)">Gȷ</text></g><g><text font-family="Arial,Arial_MSFontService,sans-serif" font-weight="400" font-size="87" transform="matrix(1 0 0 1 1393.33 1375)">Gj</text></g><text font-family="Arial,Arial_MSFontService,sans-serif" font-weight="400" font-size="60" transform="matrix(1 0 0 1 2939.92 1472)">/l/</text><text font-family="Arial,Arial_MSFontService,sans-serif" font-weight="400" font-size="60" transform="matrix(1 0 0 1 2753.72 1472)">/tɕ/</text><text font-family="Arial,Arial_MSFontService,sans-serif" font-weight="400" font-size="60" transform="matrix(1 0 0 1 2584.14 1472)">/tɕ/</text><text font-family="Arial,Arial_MSFontService,sans-serif" font-weight="400" font-size="60" transform="matrix(1 0 0 1 2422.86 1472)">/k/</text><text font-family="Arial,Arial_MSFontService,sans-serif" font-weight="400" font-size="60" transform="matrix(1 0 0 1 2261.59 1472)">/j/</text><text font-family="Arial,Arial_MSFontService,sans-serif" font-weight="400" font-size="60" transform="matrix(1 0 0 1 2092 1472)">/j/</text><text font-family="Arial,Arial_MSFontService,sans-serif" font-weight="400" font-size="60" transform="matrix(1 0 0 1 1897.5 1472)">/i, ĩ/</text><text font-family="Arial,Arial_MSFontService,sans-serif" font-weight="400" font-size="60" transform="matrix(1 0 0 1 1751.12 1472)">/h/</text><g><text font-family="Arial,Arial_MSFontService,sans-serif" font-weight="400" font-size="60" transform="matrix(1 0 0 1 1557.19 1472)">/dʑ/</text></g><g><text font-family="Arial,Arial_MSFontService,sans-serif" font-weight="400" font-size="60" transform="matrix(1 0 0 1 1387.6 1472)">/dʑ/</text></g><text font-family="Arial,Arial_MSFontService,sans-serif" font-weight="400" font-size="83" transform="matrix(1 0 0 1 2935.62 1581)">S</text><g><text font-family="Arial,Arial_MSFontService,sans-serif" font-weight="400" font-size="83" transform="matrix(1 0 0 1 2750 1581)">Rr</text></g><text font-family="Arial,Arial_MSFontService,sans-serif" font-weight="400" font-size="83" transform="matrix(1 0 0 1 2594.17 1581)">R</text><text font-family="Arial,Arial_MSFontService,sans-serif" font-weight="400" font-size="83" transform="matrix(1 0 0 1 2426.87 1581)">P</text><text font-family="Arial,Arial_MSFontService,sans-serif" font-weight="400" font-size="83" transform="matrix(1 0 0 1 2252.71 1581)">O</text><g><text font-family="Arial,Arial_MSFontService,sans-serif" font-weight="400" font-size="83" transform="matrix(1 0 0 1 2076.25 1581)">Nj</text></g><text font-family="Arial,Arial_MSFontService,sans-serif" font-weight="400" font-size="83" transform="matrix(1 0 0 1 1915.83 1581)">И</text><text font-family="Arial,Arial_MSFontService,sans-serif" font-weight="400" font-size="83" transform="matrix(1 0 0 1 1746.25 1581)">N</text><text font-family="Arial,Arial_MSFontService,sans-serif" font-weight="400" font-size="83" transform="matrix(1 0 0 1 1572.08 1581)">M</text><text font-family="Arial,Arial_MSFontService,sans-serif" font-weight="400" font-size="83" transform="matrix(1 0 0 1 1404.79 1581)">Ll</text><text font-family="Arial,Arial_MSFontService,sans-serif" font-weight="400" font-size="60" transform="matrix(1 0 0 1 2931.61 1674)">/s/</text><text font-family="Arial,Arial_MSFontService,sans-serif" font-weight="400" font-size="60" transform="matrix(1 0 0 1 2766.9 1674)">/r/</text><text font-family="Arial,Arial_MSFontService,sans-serif" font-weight="400" font-size="60" transform="matrix(1 0 0 1 2597.32 1674)">/ɾ/</text><text font-family="Arial,Arial_MSFontService,sans-serif" font-weight="400" font-size="60" transform="matrix(1 0 0 1 2421.15 1674)">/p/</text><text font-family="Arial,Arial_MSFontService,sans-serif" font-weight="400" font-size="60" transform="matrix(1 0 0 1 2253.28 1674)">/ɔ/</text><g><text font-family="Arial,Arial_MSFontService,sans-serif" font-weight="400" font-size="60" transform="matrix(1 0 0 1 2058.78 1674)">/ɲ, j/</text></g><text font-family="Arial,Arial_MSFontService,sans-serif" font-weight="400" font-size="60" transform="matrix(1 0 0 1 1912.4 1674)">/n/</text><g><text font-family="Arial,Arial_MSFontService,sans-serif" font-weight="400" font-size="60" transform="matrix(1 0 0 1 1709.58 1674)">/n, ŋ/</text></g><text font-family="Arial,Arial_MSFontService,sans-serif" font-weight="400" font-size="60" transform="matrix(1 0 0 1 1564.92 1674)">/m/</text><text font-family="Arial,Arial_MSFontService,sans-serif" font-weight="400" font-size="60" transform="matrix(1 0 0 1 1410.52 1674)">/ɫ/</text><g><text font-family="Arial,Arial_MSFontService,sans-serif" font-weight="400" font-size="83" transform="matrix(1 0 0 1 2915 1787)">Zh</text></g><text font-family="Arial,Arial_MSFontService,sans-serif" font-weight="400" font-size="83" transform="matrix(1 0 0 1 2768.33 1787)">Z</text><text font-family="Arial,Arial_MSFontService,sans-serif" font-weight="400" font-size="83" transform="matrix(1 0 0 1 2596.46 1787)">Y</text><g><text font-family="Arial,Arial_MSFontService,sans-serif" font-weight="400" font-size="87" transform="matrix(1 0 0 1 2401.09 1788)">Xh</text></g><text font-family="Arial,Arial_MSFontService,sans-serif" font-weight="400" font-size="83" transform="matrix(1 0 0 1 2257.29 1787)">X</text><text font-family="Arial,Arial_MSFontService,sans-serif" font-weight="400" font-size="83" transform="matrix(1 0 0 1 2087.71 1787)">V</text><text font-family="Arial,Arial_MSFontService,sans-serif" font-weight="400" font-size="83" transform="matrix(1 0 0 1 1915.83 1787)">U</text><g><text font-family="Arial,Arial_MSFontService,sans-serif" font-weight="400" font-size="83" transform="matrix(1 0 0 1 1727.92 1787)">Th</text></g><text font-family="Arial,Arial_MSFontService,sans-serif" font-weight="400" font-size="83" transform="matrix(1 0 0 1 1581.25 1787)">T</text><g><text font-family="Arial,Arial_MSFontService,sans-serif" font-weight="400" font-size="83" transform="matrix(1 0 0 1 1386.46 1787)">Sh</text></g><text font-family="Arial,Arial_MSFontService,sans-serif" font-weight="400" font-size="64" transform="matrix(1 0 0 1 2927.89 1885)">/ʒ/</text><text font-family="Arial,Arial_MSFontService,sans-serif" font-weight="400" font-size="64" transform="matrix(1 0 0 1 2759.74 1885)">/z/</text><g><text font-family="Arial,Arial_MSFontService,sans-serif" font-weight="400" font-size="60" transform="matrix(1 0 0 1 2563.15 1884)">/y, ỹ/</text></g><g><text font-family="Arial,Arial_MSFontService,sans-serif" font-weight="400" font-size="60" transform="matrix(1 0 0 1 2404.82 1884)">/dʒ/</text></g><text font-family="Arial,Arial_MSFontService,sans-serif" font-weight="400" font-size="60" transform="matrix(1 0 0 1 2236.67 1884)">/dz/</text><text font-family="Arial,Arial_MSFontService,sans-serif" font-weight="400" font-size="60" transform="matrix(1 0 0 1 2083.7 1884)">/v/</text><g><text font-family="Arial,Arial_MSFontService,sans-serif" font-weight="400" font-size="60" transform="matrix(1 0 0 1 1879.17 1884)">/</text></g><g><text font-family="Arial,Arial_MSFontService,sans-serif" font-weight="400" font-size="60" transform="matrix(1 0 0 1 1895.78 1884)">u</text></g><text font-family="Arial,Arial_MSFontService,sans-serif" font-weight="400" font-size="60" transform="matrix(1 0 0 1 1929.01 1884)">, </text><g><text font-family="Arial,Arial_MSFontService,sans-serif" font-weight="400" font-size="60" transform="matrix(1 0 0 1 1962.24 1884)">ũ</text></g><g><text font-family="Arial,Arial_MSFontService,sans-serif" font-weight="400" font-size="60" transform="matrix(1 0 0 1 1995.47 1884)">/</text></g><text font-family="Arial,Arial_MSFontService,sans-serif" font-weight="400" font-size="60" transform="matrix(1 0 0 1 1742.81 1884)">/θ/</text><text font-family="Arial,Arial_MSFontService,sans-serif" font-weight="400" font-size="60" transform="matrix(1 0 0 1 1581.54 1884)">/t/</text><text font-family="Arial,Arial_MSFontService,sans-serif" font-weight="400" font-size="60" transform="matrix(1 0 0 1 1413.67 1884)">/ʃ/</text></g></svg>